<?xml version="1.0" encoding="utf-8"?>
<!-- Generator: Adobe Illustrator 25.3.1, SVG Export Plug-In . SVG Version: 6.00 Build 0)  -->
<svg version="1.1" id="Layer_1" xmlns="http://www.w3.org/2000/svg" xmlns:xlink="http://www.w3.org/1999/xlink" x="0px" y="0px"
	 viewBox="0 0 511 511" style="enable-background:new 0 0 511 511;" xml:space="preserve">
<style type="text/css">
	.st0{fill:#00A62C;}
	.st1{fill:#29CE69;}
	.st2{fill:#F9EE80;}
	.st3{fill:#EEDB00;}
	.st4{fill:#73DA8C;}
</style>
<path class="st0" d="M161.9,87.5c53.9,22.7,71.7,102.4,49.1,156.3c-22.7,53.9-84.8,79.2-138.6,56.5c-53.9-22.7-79.2-84.8-56.5-138.6
	C38.5,107.7,108,64.8,161.9,87.5z"/>
<path class="st1" d="M349.1,87.5c-53.9,22.7-71.7,102.4-49,156.3c22.7,53.9,84.8,79.2,138.6,56.5s79.2-84.8,56.5-138.6
	C472.5,107.7,403,64.8,349.1,87.5z"/>
<path class="st2" d="M325.5,282.7c-25.2,10.5-45,40.5-57.1,63.4c-5.3,10.2-20.6,10.2-25.9,0c-12-22.9-31.8-52.9-57.1-63.4
	c0,0.7-53.1,27.8-53.1,27.8s44,36.1,44,85.1v64.2c0,20.8,17.8,37.7,39.8,37.7h78.7c22,0,39.8-16.9,39.8-37.7v-64.2
	c0-49,44-85.1,44-85.1S325.5,283.4,325.5,282.7z"/>
<path class="st3" d="M378.6,310.5c0,0-53.1-27.1-53.1-27.8c-25.2,10.5-45,40.5-57.1,63.4c-5.3,10.2-20.6,10.2-25.9,0
	c-12-22.9-31.8-52.9-57.1-63.4c0,0.7-53.1,27.8-53.1,27.8s44,36.1,44,85.1c0,0,27.9-9.4,71.8-12.2c64.7-4,106.1-45.5,106.1-45.5
	C366,320.9,378.6,310.5,378.6,310.5z"/>
<path class="st4" d="M397.2,136.7c-12.3-7.8-21.5-19.7-25.2-33.7c-13.7-51.5-60.7-89.5-116.6-89.5s-102.8,38-116.6,89.5
	c-3.7,14-12.9,25.9-25.2,33.7c-29.9,19-49.5,52.8-48.4,91.1c1.7,55,46.7,99.6,101.7,100.7c21.5,0.5,41.5-5.6,58.3-16.3
	c18.3-11.7,42-11.7,60.4,0c16.8,10.7,36.8,16.8,58.3,16.3c55-1.2,100-45.8,101.7-100.7C446.8,189.5,427.2,155.6,397.2,136.7z"/>
<path class="st1" d="M255.5,13.5c-55.9,0-102.8,38-116.6,89.5c-3.7,14-12.9,25.9-25.2,33.7c-29.9,19-49.5,52.8-48.4,91.1
	c1.7,55,46.7,99.6,101.7,100.8c9,0.2,17.7-0.7,26-2.7c-43.6-68.7-23.2-134.8-9.8-164c4.7-10.3,8.5-21,10.7-32.1
	c18.5-90.6,123.9-98,125.5-98.1C300.9,20.2,279,13.5,255.5,13.5z"/>
<path d="M302.8,413.9c-4.1,0-7.5,3.3-7.5,7.5v12.4c0,4.1,3.3,7.5,7.5,7.5c4.1,0,7.5-3.3,7.5-7.5v-12.4
	C310.3,417.3,306.9,413.9,302.8,413.9z"/>
<path d="M208.2,413.9c-4.1,0-7.5,3.3-7.5,7.5v12.4c0,4.1,3.3,7.5,7.5,7.5c4.1,0,7.5-3.3,7.5-7.5v-12.4
	C215.7,417.3,212.3,413.9,208.2,413.9z"/>
<path d="M271,424.2c-1.3-0.8-6.9-3-10.4,2.1c-1.7,2.5-4.1,2.8-5.1,2.8c-1,0-3.5-0.3-5.1-2.8c-2.3-3.5-6.9-4.4-10.4-2.1
	c-3.5,2.3-4.4,6.9-2.1,10.4c3.9,6,10.5,9.5,17.6,9.5c7.1,0,13.7-3.6,17.6-9.5C275.4,431.1,274.4,426.5,271,424.2z"/>
<path d="M502.1,158.7c-10.6-25.3-31.3-48.9-56.8-64.8c-25-15.6-51.9-22.4-76.3-19.3C347.2,33.1,303.8,6,255.5,6S163.8,33.1,142,74.6
	c-24.8-3.1-52,3.8-77.2,19.9c-3.5,2.2-4.5,6.8-2.3,10.3c1.4,2.2,6,5,10.3,2.3c20.9-12.9,42.6-19.4,62.7-18.1
	c-1.5,3.9-2.8,8-3.9,12.1c-3.2,11.9-11,22.3-22,29.3c-16.1,10.2-29.3,24.4-38.4,41c-9.4,17.3-14,36.8-13.4,56.6
	c0.8,25.4,10.1,49.4,26.6,68.7c-35.1-11-52.3-32.6-62.2-56.9c-9.9-24.3-9.8-51.1,0.4-75.3c5.8-13.7,15-27.1,26.8-38.8
	c2.9-2.9,2.9-7.7,0-10.6c-2.9-2.9-7.6-3-10.6,0c-13.1,13-23.5,28.1-30,43.6C-2.8,186.6-3,217.4,8.4,245.4c11.4,28,33.1,49.9,61,61.7
	c11.5,4.9,23.6,7.7,36,8.6c11.6,8.2,24.6,14.1,38.3,17.3c11.9,14.6,25.2,36.8,25.2,62.6v64.2c0,24.9,21.2,45.2,47.2,45.2h78.7
	c26,0,47.2-20.3,47.2-45.2v-64.2c0-25.8,13.5-48.1,25.2-62.6c13.7-3.3,26.7-9.1,38.3-17.3c12.3-0.9,24.4-3.7,36-8.6
	c27.9-11.7,49.6-33.7,61-61.7C514,217.4,513.8,186.6,502.1,158.7z M327.1,395.6v64.2c0,16.7-14.5,30.3-32.3,30.3h-78.7
	c-17.8,0-32.3-13.6-32.3-30.3v-64.2c0-23.4-9.2-43.9-19.5-59.7c0.8,0,28,2.2,55.9-12.2c5.4,7.6,10.7,16.3,15.7,25.8
	c3.8,7.2,11.3,11.6,19.6,11.6c8.3,0,15.8-4.5,19.6-11.6c5-9.5,10.3-18.2,15.7-25.8c28.6,15.4,55,12.2,55.9,12.2
	C336.3,351.6,327.1,372.2,327.1,395.6z M233.3,316.3c13.9-7.2,30.6-7.2,44.5,0c-5.5,7.9-10.8,16.7-15.9,26.3
	c-1.8,3.4-5.3,3.6-6.3,3.6c-1,0-4.6-0.3-6.3-3.6C244.1,333,238.8,324.2,233.3,316.3z M426.5,296.7c16.5-19.3,25.8-43.3,26.6-68.7
	c0.4-13.8-1.7-27.3-6.2-40.2c-1.4-3.9-5.6-6-9.5-4.6c-3.9,1.4-6,5.6-4.6,9.5c3.9,11.2,5.7,22.9,5.3,34.8
	c-0.7,24.7-10.9,47.9-28.6,65.5c-17.7,17.5-41,27.5-65.7,28c-19.3,0.4-38-4.8-54.1-15.1c-20.8-13.3-47.6-13.3-68.4,0
	c-16.1,10.3-34.8,15.1-54.1,15.1c-37.6,0-62.5-24.9-65.7-28c-17.7-17.5-27.9-40.8-28.6-65.5c-1-34.5,15.7-66.1,44.9-84.6
	c14.2-9,24.3-22.5,28.4-38.1c13.2-49.4,58.1-84,109.3-84s96.2,34.5,109.3,84c4.1,15.6,14.2,29.1,28.4,38.1
	c10.5,6.6,19.4,15.1,26.7,25.1c2.4,3.3,7.1,4.1,10.4,1.7c3.4-2.4,4.1-7.1,1.7-10.5c-8.4-11.6-18.8-21.3-30.8-29
	c-11-7-18.8-17.4-22-29.3c-1.1-4.1-2.4-8.2-3.9-12.1c19.8-1.3,41.5,4.8,61.9,17.6c22.9,14.3,41.4,35.4,50.9,57.9
	C509.3,214.5,485,275,426.5,296.7z"/>
</svg>
